<?xml version="1.0" encoding="UTF-8" standalone="no"?>
<!-- Created with Inkscape (http://www.inkscape.org/) -->

<svg
   width="210mm"
   height="297mm"
   viewBox="0 0 210 297"
   version="1.1"
   id="svg1"
   inkscape:version="1.4.2 (ebf0e940, 2025-05-08)"
   xml:space="preserve"
   sodipodi:docname="logo.svg"
   xmlns:inkscape="http://www.inkscape.org/namespaces/inkscape"
   xmlns:sodipodi="http://sodipodi.sourceforge.net/DTD/sodipodi-0.dtd"
   xmlns="http://www.w3.org/2000/svg"
   xmlns:svg="http://www.w3.org/2000/svg"><sodipodi:namedview
     id="namedview1"
     pagecolor="#ffffff"
     bordercolor="#000000"
     borderopacity="0.25"
     inkscape:showpageshadow="2"
     inkscape:pageopacity="0.0"
     inkscape:pagecheckerboard="0"
     inkscape:deskcolor="#d1d1d1"
     inkscape:document-units="mm"
     showgrid="true"
     inkscape:zoom="1.0965167"
     inkscape:cx="192.42754"
     inkscape:cy="287.72933"
     inkscape:current-layer="g66"><inkscape:grid
       id="grid1"
       units="mm"
       originx="0"
       originy="0"
       spacingx="0.99999998"
       spacingy="1"
       empcolor="#0099e5"
       empopacity="0.07843137"
       color="#0099e5"
       opacity="0.03137255"
       empspacing="10"
       enabled="true"
       visible="true"
       snapvisiblegridlinesonly="false"
       dotted="false" /></sodipodi:namedview><defs
     id="defs1" /><g
     inkscape:label="Layer 1"
     inkscape:groupmode="layer"
     id="g66"
     style="display:inline"><rect
       style="opacity:1;fill:#333333;stroke:none;stroke-width:0.368012;stroke-dasharray:none"
       id="rect34"
       width="65"
       height="64.066422"
       x="0"
       y="0"
       ry="2.6840215" /><path
       style="fill:#ff0000;stroke-width:0.62229"
       d="m 31.131011,12.919327 c 0.395596,0.01531 2.33372,0.01562 2.484264,4.04e-4 0.09109,-0.0092 0.463731,0.01158 0.828081,0.04617 0.364364,0.0346 0.848791,0.03404 1.076518,-0.0012 l 0.414041,-0.06423 0.02551,-0.399131 c 0.01425,-0.223221 -0.01755,-0.451048 -0.07225,-0.516917 -0.08162,-0.09835 -0.661469,-0.117775 -3.515303,-0.117775 -3.817303,0 -3.518094,-0.05202 -3.518094,0.611276 0,0.543949 0.06479,0.571815 1.159326,0.498678 0.523763,-0.03497 1.026822,-0.06074 1.117913,-0.05725 z"
       id="path34" /><path
       style="fill:#ffffff;stroke-width:0.62229"
       d="m 37.796802,14.04032 c -2.68e-4,-0.90743 -0.02346,-1.093737 -0.164863,-1.325696 -0.216414,-0.354941 -0.629546,-0.59891 -1.014855,-0.599296 l -0.310529,-3.05e-4 v 0.37264 c 0,0.355309 0.01108,0.372633 0.238287,0.372633 0.131054,0 0.276533,0.04655 0.323273,0.103512 0.04673,0.05694 0.111994,0.559998 0.144994,1.117919 l 0.05999,1.014407 h 0.361998 0.361998 z"
       id="path35" /><path
       style="fill:#ffffff;stroke-width:0.62229"
       d="m 27.77726,14.129649 c 0,-1.05292 0.07985,-1.269353 0.468286,-1.269353 0.174938,0 0.194185,-0.0369 0.194185,-0.372633 v -0.37264 h -0.318992 c -0.395241,0 -0.809997,0.269315 -1.018234,0.661177 -0.125217,0.235636 -0.153332,0.474763 -0.153332,1.304232 v 1.015702 h 0.414047 0.41404 z"
       id="path36" /><path
       style="fill:#ffffff;stroke-width:0.62229"
       d="m 28.746464,38.82842 0.33221,-0.365027 3.34481,0.04369 3.344815,0.04368 0.289831,0.324232 0.289826,0.324238 4.264646,-0.02359 4.264645,-0.02358 0.04138,-0.693317 0.04138,-0.693355 0.282078,-0.09333 c 0.155143,-0.05134 0.360094,-0.198529 0.455448,-0.327107 0.173183,-0.233514 0.173394,-0.243881 0.195498,-9.391206 0.02452,-10.141023 0.04536,-9.707163 -0.510414,-10.621736 -0.333983,-0.549613 -1.11665,-1.176209 -1.727714,-1.383207 -0.404936,-0.137165 -1.140894,-0.148715 -11.03338,-0.173084 -7.701649,-0.01898 -10.735349,-2.49e-4 -11.096364,0.0685 -1.209944,0.230415 -2.200548,1.167036 -2.566809,2.426943 -0.129269,0.444676 -0.135635,1.174976 -0.08296,9.52195 0.05532,8.763901 0.06204,9.050988 0.220496,9.388799 0.119529,0.254827 0.250926,0.387058 0.488977,0.492088 l 0.325532,0.143618 v 0.687902 0.687935 h 4.251908 4.251907 z"
       id="path58" /><path
       style="fill:#ffffff;stroke-width:0.62229"
       d="m 42.863916,40.890869 0.0257,-0.952464 -1.891456,1.62e-4 -0.980773,1.61e-4 0.04723,0.393344 c 0.02595,0.216339 0.07107,0.644872 0.100226,0.952302 l 0.05302,0.558954 h 0.854834 1.765517 z"
       id="path59"
       sodipodi:nodetypes="cccccscccc" /><path
       style="fill:#ffffff;stroke-width:0.62229"
       d="m 24.708231,41.209774 c 0.02944,-0.348457 0.05358,-0.776997 0.05358,-0.952302 v -0.318744 h -2.118665 -0.993704 v 0.952303 0.952297 h 0.940149 2.065112 z"
       id="path60"
       sodipodi:nodetypes="sscccccccs" /><path
       d="m 15.892425,44.299343 -1.109283,3.375488 -1.088867,-3.375488 H 12.673462 L 11.550568,47.64761 10.475311,44.299343 H 9.3320011 l 1.5652459,4.763794 h 1.177338 l 1.082062,-3.225769 1.048034,3.225769 h 1.184143 l 1.558442,-4.763794 z m 4.296961,4.845459 c 1.497193,0 2.606476,-1.041229 2.606476,-2.463562 0,-1.422333 -1.109283,-2.463562 -2.606476,-2.463562 -1.503998,0 -2.606476,1.048035 -2.606476,2.463562 0,1.415528 1.102478,2.463562 2.606476,2.463562 z m 0,-0.939148 c -0.850677,0 -1.490387,-0.619293 -1.490387,-1.524414 0,-0.905121 0.63971,-1.524414 1.490387,-1.524414 0.850678,0 1.490387,0.619293 1.490387,1.524414 0,0.905121 -0.639709,1.524414 -1.490387,1.524414 z m 8.03314,0.857483 -1.068451,-1.531219 c 0.619293,-0.265412 0.97998,-0.789429 0.97998,-1.503998 0,-1.068451 -0.796234,-1.728577 -2.068848,-1.728577 h -2.062042 v 4.763794 h 1.102478 V 47.73608 h 0.959564 0.05444 l 0.918731,1.327057 z m -1.20456,-3.035217 c 0,0.517212 -0.340271,0.830261 -1.014007,0.830261 h -0.898316 v -1.660522 h 0.898316 c 0.673736,0 1.014007,0.306244 1.014007,0.830261 z m 5.624026,3.035217 h 1.286225 l -2.089264,-2.640503 1.973572,-2.123291 h -1.224976 l -2.10968,2.225372 v -2.225372 h -1.095673 v 4.763794 h 1.095673 v -1.204559 l 0.639709,-0.666931 z m 3.616425,0.08167 c 1.361084,0 2.02121,-0.680542 2.02121,-1.476776 0,-1.748993 -2.769806,-1.143311 -2.769806,-2.02121 0,-0.299438 0.2518,-0.544433 0.905121,-0.544433 0.421936,0 0.877899,0.122497 1.320251,0.374298 l 0.340271,-0.837067 c -0.442352,-0.279022 -1.05484,-0.421936 -1.653717,-0.421936 -1.354278,0 -2.007599,0.673737 -2.007599,1.483582 0,1.769409 2.769806,1.156921 2.769806,2.048431 0,0.292633 -0.265411,0.510407 -0.918732,0.510407 -0.571655,0 -1.170532,-0.204163 -1.572052,-0.496796 l -0.374298,0.830261 c 0.421936,0.32666 1.184143,0.551239 1.939545,0.551239 z m 6.42026,-4.845459 v 1.878296 h -2.164124 v -1.878296 h -1.102478 v 4.763794 h 1.102478 v -1.95316 h 2.164124 v 1.953155 h 1.102478 v -4.763794 z m 4.916263,4.845459 c 1.497192,0 2.606476,-1.041229 2.606476,-2.463562 0,-1.422333 -1.109284,-2.463562 -2.606476,-2.463562 -1.503998,0 -2.606476,1.048035 -2.606476,2.463562 0,1.415528 1.102478,2.463562 2.606476,2.463562 z m 0,-0.939148 c -0.850677,0 -1.490387,-0.619293 -1.490387,-1.524414 0,-0.905121 0.63971,-1.524414 1.490387,-1.524414 0.850678,0 1.490387,0.619293 1.490387,1.524414 0,0.905121 -0.639709,1.524414 -1.490387,1.524414 z m 5.875817,-3.906311 h -2.06204 v 4.763794 h 1.10248 v -1.313446 h 0.95956 c 1.27262,0 2.06885,-0.660126 2.06885,-1.721771 0,-1.068451 -0.79623,-1.728577 -2.06885,-1.728577 z m -0.0613,2.552033 h -0.89831 v -1.653717 h 0.89831 c 0.67374,0 1.01401,0.306244 1.01401,0.830261 0,0.517212 -0.34027,0.823456 -1.01401,0.823456 z"
       id="text60"
       style="font-weight:bold;font-size:6.80542px;font-family:Montserrat;-inkscape-font-specification:'Montserrat, Bold';letter-spacing:0.377043px;fill:#ffffff;stroke-width:0.0622289"
       aria-label="WORKSHOP" /><path
       d="m 26.896228,54.913887 c 1.023927,0 1.782563,-0.712095 1.782563,-1.684824 0,-0.97273 -0.758636,-1.684824 -1.782563,-1.684824 -1.02858,0 -1.782562,0.716748 -1.782562,1.684824 0,0.968075 0.753982,1.684824 1.782562,1.684824 z m 0,-0.642281 c -0.581776,0 -1.019272,-0.423533 -1.019272,-1.042543 0,-0.61901 0.437496,-1.042543 1.019272,-1.042543 0.581777,0 1.019272,0.423533 1.019272,1.042543 0,0.61901 -0.437495,1.042543 -1.019272,1.042543 z m 4.884139,-2.671517 -1.005309,2.327105 -0.991347,-2.327105 h -0.814487 l 1.405572,3.257947 h 0.744673 l 1.410226,-3.257947 z m 2.026462,2.6529 v -0.753982 h 1.512619 v -0.586431 h -1.512619 v -0.70744 h 1.71275 v -0.605047 h -2.462077 v 3.257947 h 2.522581 v -0.605047 z m 4.874832,-2.6529 v 1.978039 l -1.619665,-1.978039 h -0.623664 v 3.257947 h 0.744673 v -1.978039 l 1.62432,1.978039 h 0.61901 v -3.257947 z"
       id="text61"
       style="font-weight:bold;font-size:4.65421px;font-family:Montserrat;-inkscape-font-specification:'Montserrat, Bold';letter-spacing:0.257858px;fill:#ff0000;stroke-width:0.062229"
       aria-label="OVEN" /><rect
       style="opacity:1;fill:#ffffff;stroke:none;stroke-width:0.062229"
       id="rect61"
       width="3.1904809"
       height="0.44556674"
       x="19.733513"
       y="53.113682" /><rect
       style="display:inline;opacity:1;fill:#ffffff;stroke:none;stroke-width:0.062229"
       id="rect62"
       width="3.1904809"
       height="0.44556674"
       x="41.824799"
       y="53.113682" /><path
       style="baseline-shift:baseline;display:inline;overflow:visible;vector-effect:none;enable-background:accumulate;stop-color:#000000"
       d="m 22.232544,17.193989 c -1.23001,0 -2.228516,1.000458 -2.228516,2.230469 v 13.660156 c 0,1.23001 0.998506,2.230469 2.228516,2.230469 h 20.376953 c 1.23001,0 2.230469,-1.000459 2.230469,-2.230469 V 19.424458 c 0,-1.230011 -1.000459,-2.230469 -2.230469,-2.230469 z m 0,0.603515 h 20.376953 c 0.906775,0 1.628906,0.720179 1.628906,1.626954 v 13.660156 c 0,0.906775 -0.722131,1.626953 -1.628906,1.626953 H 22.232544 c -0.906775,0 -1.626953,-0.720178 -1.626953,-1.626953 V 19.424458 c 0,-0.906775 0.720178,-1.626954 1.626953,-1.626954 z"
       id="path73" /><path
       style="baseline-shift:baseline;display:inline;overflow:visible;opacity:1;vector-effect:none;enable-background:accumulate;stop-color:#000000;stop-opacity:1"
       d="m 28.888794,18.690083 c -0.334738,0 -0.642026,0.08494 -0.884766,0.24414 -0.242739,0.159205 -0.43164,0.414997 -0.43164,0.722656 v 0.171875 c 0,0.30766 0.188901,0.563452 0.43164,0.722657 0.24274,0.159204 0.550028,0.24414 0.884766,0.24414 h 6.857422 c 0.334738,0 0.642026,-0.08494 0.884765,-0.24414 0.24274,-0.159205 0.433594,-0.414997 0.433594,-0.722657 v -0.171875 c 0,-0.307659 -0.190854,-0.563451 -0.433594,-0.722656 -0.242739,-0.159204 -0.550027,-0.24414 -0.884765,-0.24414 z m 0,0.599609 h 6.857422 c 0.229136,0 0.431436,0.06437 0.55664,0.146484 0.125204,0.08212 0.16211,0.158538 0.16211,0.220703 v 0.171875 c 0,0.06217 -0.03691,0.138587 -0.16211,0.220704 -0.125204,0.08212 -0.327504,0.146484 -0.55664,0.146484 h -6.857422 c -0.229137,0 -0.429484,-0.06437 -0.554688,-0.146484 -0.125204,-0.08212 -0.162109,-0.158538 -0.162109,-0.220704 v -0.171875 c 0,-0.06217 0.03691,-0.138586 0.162109,-0.220703 0.125204,-0.08212 0.325551,-0.146484 0.554688,-0.146484 z"
       id="rect64" /><path
       style="baseline-shift:baseline;display:inline;overflow:visible;opacity:1;vector-effect:none;enable-background:accumulate;stop-color:#000000;stop-opacity:1"
       d="m 22.634888,21.442036 c -0.872422,0 -1.583985,0.711563 -1.583985,1.583984 v 9.095703 c 0,0.872422 0.711563,1.583985 1.583985,1.583985 h 19.595703 c 0.872421,0 1.583984,-0.711563 1.583984,-1.583985 V 23.02602 c 0,-0.872421 -0.711563,-1.583984 -1.583984,-1.583984 z m 0,0.599609 h 19.595703 c 0.5504,0 0.984375,0.433975 0.984375,0.984375 v 9.095703 c 0,0.5504 -0.433975,0.984375 -0.984375,0.984375 H 22.634888 c -0.5504,0 -0.984375,-0.433975 -0.984375,-0.984375 V 23.02602 c 0,-0.5504 0.433975,-0.984375 0.984375,-0.984375 z"
       id="rect65" /><g
       id="g67"
       transform="matrix(0.99705828,0,0,1,-48.652393,-37.866558)"><path
         id="path65"
         style="fill:#ff0000;stroke-width:0.612921"
         d="m 91.565414,67.841196 v -0.767639 h -0.518665 c -0.590029,0 -0.716249,-0.08066 -0.716249,-0.457735 0,-0.334567 0.173926,-0.431098 0.7767,-0.431098 h 0.458214 v -0.717822 -0.717821 l -0.526516,-0.03291 c -0.289588,-0.01809 -0.58498,-0.08052 -0.656437,-0.138732 -0.07145,-0.05823 -0.351629,-0.556695 -0.622608,-1.107756 l -0.492679,-1.001928 -0.764997,-0.0061 c -8.040199,-0.06245 -14.902212,-0.06412 -15.06423,-0.0036 -0.152646,0.05696 -0.295175,0.285607 -0.593005,0.951328 -0.215632,0.481995 -0.488776,0.976341 -0.606993,1.098557 -0.190229,0.196667 -0.274679,0.222213 -0.734655,0.222213 h -0.519729 v 0.727233 0.727235 h 0.530463 c 0.454829,0 0.548725,0.02562 0.658614,0.179585 0.310246,0.434735 0.05221,0.709248 -0.666707,0.709248 h -0.52237 v 0.767638 0.767633 H 81.27449 91.565414 Z M 71.942595,63.199619 c 0.187056,-0.397457 0.319477,-0.742894 0.294271,-0.767638 -0.02524,-0.02472 -0.317514,-0.04499 -0.64957,-0.04499 h -0.603731 v 0.767638 0.767633 h 0.30946 c 0.309311,0 0.309628,-3.59e-4 0.64957,-0.722649 z m 19.622819,-0.0043 v -0.727234 h -0.617461 c -0.339595,0 -0.617453,0.01767 -0.617453,0.03923 0,0.02155 0.15645,0.348824 0.347656,0.727233 0.330527,0.654112 0.360953,0.68802 0.617454,0.68802 h 0.269804 z m -16.35388,3.898495 c -0.486671,-0.0069 -0.846282,-0.01332 -1.111947,-0.02741 -0.710971,-0.03771 -0.749109,-0.130661 -0.749109,-0.437334 0,-0.292443 -0.01216,-0.426737 0.802341,-0.426664 l 13.705388,0.0012 c 0.688905,6.1e-5 1.186546,0.0458 1.215414,0.08201 0.157514,0.197611 0.172394,0.464003 0.03489,0.625464 -0.101086,0.118724 -0.196876,0.161176 -1.456005,0.163154 z m -1.210261,-2.511393 c -0.165161,-0.179131 -0.176569,-0.446029 -0.02438,-0.570011 0.08162,-0.06648 2.080189,-0.08556 7.386911,-0.0705 l 7.275016,0.02065 0.07875,0.219765 c 0.06238,0.174121 0.04734,0.253831 -0.07252,0.383813 -0.149817,0.162481 -0.220136,0.164054 -7.329396,0.164054 -6.849501,0 -7.18437,-0.0067 -7.314384,-0.147768 z" /><path
         id="rect66"
         style="opacity:1;fill:#1a1a1a;stroke:none;stroke-width:0.590967;stroke-dasharray:none"
         d="m 72.149528,60.625591 c -0.606967,0 -1.097779,0.471673 -1.113834,1.063467 h 20.503685 c -0.01606,-0.591794 -0.506866,-1.063467 -1.113834,-1.063467 z" /><path
         id="path67"
         style="opacity:1;fill:#1a1a1a;stroke:none;stroke-width:0.590967;stroke-dasharray:none"
         d="m 90.425545,70.385576 c 0.606968,0 1.097779,-0.471673 1.113834,-1.063467 H 71.035694 c 0.01606,0.591794 0.506867,1.063467 1.113834,1.063467 z" /></g><circle
       style="opacity:1;fill:#000000;stroke:none;stroke-width:0.669297;stroke-dasharray:none"
       id="path68"
       cx="21.823128"
       cy="36.943165"
       r="0.82441789" /><circle
       style="opacity:1;fill:#000000;stroke:none;stroke-width:0.669297;stroke-dasharray:none"
       id="circle69"
       cx="25.02401"
       cy="37.007183"
       r="0.82441789" /><rect
       style="opacity:1;fill:#000000;stroke:none;stroke-width:0.600001;stroke-dasharray:none"
       id="rect70"
       width="6.3590813"
       height="1.2163343"
       x="29.606499"
       y="36.351177"
       ry="0.60816717" /><rect
       style="opacity:1;fill:#000000;stroke:none;stroke-width:0.372729;stroke-dasharray:none"
       id="rect71"
       width="2.4540079"
       height="1.2163343"
       x="37.587364"
       y="36.393856"
       ry="0.60816717" /><rect
       style="opacity:1;fill:#000000;stroke:none;stroke-width:0.304993;stroke-dasharray:none"
       id="rect72"
       width="1.6431183"
       height="1.2163343"
       x="41.698204"
       y="36.393856"
       ry="0.60816717" /></g></svg>
